<?xml version="1.0" standalone="no"?>
<!DOCTYPE svg PUBLIC "-//W3C//DTD SVG 20010904//EN"
 "http://www.w3.org/TR/2001/REC-SVG-20010904/DTD/svg10.dtd">
<svg version="1.0" xmlns="http://www.w3.org/2000/svg"
 width="1024.000000pt" height="1024.000000pt" viewBox="0 0 1024.000000 1024.000000"
 preserveAspectRatio="xMidYMid meet">

  <rect
    width="1024"
    height="1024"
    ry="256"
    style="fill:#d4e7f7;fill-opacity:1;" />

  <g transform="translate(0.000000,1024.000000) scale(0.100000,-0.100000)"
     fill="#16161d" stroke="#16161d" stroke-width="50">
    <path d="M0 5120 l0 -5120 5120 0 5120 0 0 5120 0 5120 -5120 0 -5120 0 0 -5120z m6938 4160 c669 -35 1055 -136 1417 -368 226 -145 445 -369 590 -603 164 -263 260 -557 312 -949 17 -126 18 -273 18 -2225 0 -2175 1 -2120 -41 -2398 -97 -649 -459 -1191 -991 -1488 -313 -173 -698 -264 -1233 -289 -273 -13 -3492 -13 -3805 0 -761 31 -1254 220 -1656 637 -358 371 -538 828 -579 1468 -6 99 -10 902 -10 2110 0 1623 3 1976 15 2107 33 363 102 623 236 891 183 365 514 682 904 867 274 129 676 213 1155 239 221 12 3436 13 3668 1z"/>
    <path d="M5030 8631 c-46 -15 -93 -43 -440 -261 -718 -451 -1603 -1002 -1809 -1126 -232 -140 -306 -193 -333 -240 -10 -17 -23 -66 -28 -110 -7 -53 -10 -652 -8 -1814 l3 -1735 24 -48 c13 -26 35 -57 50 -68 24 -20 2015 -1215 2430 -1461 102 -59 202 -113 222 -118 43 -12 110 -4 154 18 33 16 1202 714 2015 1202 503 302 526 317 555 364 l30 49 3 674 c2 450 -1 687 -8 713 -6 22 -25 58 -43 81 -35 45 -44 51 -864 546 l-473 286 0 1084 c0 1044 -1 1085 -19 1121 -29 58 56 2 -881 574 -212 129 -400 243 -419 252 -38 20 -124 29 -161 17z m-140 -983 l0 -393 -93 -55 c-145 -86 -974 -591 -1052 -642 l-70 -45 -235 142 c-129 78 -270 164 -313 190 l-79 48 29 17 c173 108 1737 1089 1763 1106 19 13 38 24 42 24 5 0 8 -177 8 -392z m609 287 c86 -52 253 -155 371 -228 l215 -133 2 -1010 2 -1009 -331 -200 c-182 -110 -353 -212 -380 -228 l-48 -27 0 1465 c0 806 3 1465 6 1465 4 0 77 -43 163 -95z m-611 -2182 l-3 -998 24 -43 c28 -48 32 -51 339 -231 169 -99 873 -523 890 -536 1 -1 -172 -105 -385 -231 -213 -125 -428 -252 -477 -282 l-89 -53 -361 218 c-199 119 -487 295 -641 389 l-280 172 0 997 0 997 490 299 c270 164 491 299 493 299 2 0 2 -449 0 -997z m-1808 617 c129 -78 274 -167 323 -197 l87 -55 0 -982 0 -982 -77 -45 c-43 -25 -189 -112 -325 -192 -136 -81 -249 -147 -252 -147 -3 0 -6 619 -6 1376 0 756 3 1373 8 1371 4 -3 113 -69 242 -147z m3313 -1216 c288 -168 887 -538 880 -545 -4 -4 -165 -98 -356 -209 -230 -133 -354 -199 -365 -195 -46 17 -932 559 -925 565 17 16 687 420 696 420 5 0 36 -16 70 -36z m1095 -1306 l-3 -371 -335 -201 c-184 -111 -436 -262 -560 -335 -886 -526 -1131 -671 -1172 -695 l-48 -28 0 381 0 380 383 229 c512 307 920 549 1222 724 138 80 304 177 370 216 66 39 126 71 133 71 10 1 12 -76 10 -371z m-3699 -120 c365 -219 1158 -703 1169 -712 9 -9 12 -97 10 -394 l-3 -382 -420 251 c-890 530 -1494 894 -1494 899 0 3 131 82 290 175 160 94 305 180 322 192 18 12 34 22 36 23 2 0 42 -23 90 -52z"/>
  </g>
</svg>